<svg width="21" height="18" viewBox="0 0 21 18" fill="none" xmlns="http://www.w3.org/2000/svg">
<path d="M0.792 3.8V0.961999H6.094V17H2.926V3.8H0.792ZM11.8207 8.508C10.354 7.74533 9.6207 6.56467 9.6207 4.966C9.6207 4.174 9.8187 3.45533 10.2147 2.81C10.6254 2.15 11.234 1.62933 12.0407 1.248C12.862 0.851999 13.8594 0.653999 15.0327 0.653999C16.206 0.653999 17.196 0.851999 18.0027 1.248C18.824 1.62933 19.4327 2.15 19.8287 2.81C20.2394 3.45533 20.4447 4.174 20.4447 4.966C20.4447 5.77267 20.2467 6.484 19.8507 7.1C19.4547 7.70133 18.9267 8.17067 18.2667 8.508C19.0734 8.86 19.704 9.37333 20.1587 10.048C20.6134 10.7227 20.8407 11.522 20.8407 12.446C20.8407 13.4433 20.584 14.316 20.0707 15.064C19.572 15.7973 18.8827 16.362 18.0027 16.758C17.1227 17.154 16.1327 17.352 15.0327 17.352C13.9327 17.352 12.9427 17.154 12.0627 16.758C11.1974 16.362 10.508 15.7973 9.9947 15.064C9.49604 14.316 9.2467 13.4433 9.2467 12.446C9.2467 11.522 9.47404 10.7227 9.9287 10.048C10.3834 9.35867 11.014 8.84533 11.8207 8.508ZM17.4527 5.406C17.4527 4.68733 17.2327 4.13 16.7927 3.734C16.3674 3.338 15.7807 3.14 15.0327 3.14C14.2994 3.14 13.7127 3.338 13.2727 3.734C12.8474 4.13 12.6347 4.69467 12.6347 5.428C12.6347 6.088 12.8547 6.616 13.2947 7.012C13.7494 7.408 14.3287 7.606 15.0327 7.606C15.7367 7.606 16.316 7.408 16.7707 7.012C17.2254 6.60133 17.4527 6.066 17.4527 5.406ZM15.0327 9.85C14.1967 9.85 13.5147 10.0627 12.9867 10.488C12.4734 10.9133 12.2167 11.522 12.2167 12.314C12.2167 13.0473 12.466 13.6487 12.9647 14.118C13.478 14.5727 14.1674 14.8 15.0327 14.8C15.898 14.8 16.58 14.5653 17.0787 14.096C17.5774 13.6267 17.8267 13.0327 17.8267 12.314C17.8267 11.5367 17.57 10.9353 17.0567 10.51C16.5434 10.07 15.8687 9.85 15.0327 9.85Z" fill="#2A3246"/>
</svg>
