<svg width="12" height="18" viewBox="0 0 12 18" fill="none" xmlns="http://www.w3.org/2000/svg">
<path d="M8.482 4.966C8.33533 4.35 8.07867 3.888 7.712 3.58C7.36 3.272 6.84667 3.118 6.172 3.118C5.16 3.118 4.412 3.52867 3.928 4.35C3.45867 5.15667 3.21667 6.47667 3.202 8.31C3.554 7.72333 4.06733 7.26867 4.742 6.946C5.41667 6.60867 6.15 6.44 6.942 6.44C7.89533 6.44 8.73867 6.64533 9.472 7.056C10.2053 7.46667 10.7773 8.068 11.188 8.86C11.5987 9.63733 11.804 10.576 11.804 11.676C11.804 12.7173 11.5913 13.6487 11.166 14.47C10.7553 15.2767 10.1467 15.9073 9.34 16.362C8.53333 16.8167 7.57267 17.044 6.458 17.044C4.93267 17.044 3.73 16.7067 2.85 16.032C1.98467 15.3573 1.376 14.4187 1.024 13.216C0.686667 11.9987 0.518 10.5027 0.518 8.728C0.518 6.044 0.98 4.02 1.904 2.656C2.828 1.27733 4.28733 0.587999 6.282 0.587999C7.822 0.587999 9.01733 1.006 9.868 1.842C10.7187 2.678 11.21 3.71933 11.342 4.966H8.482ZM6.238 8.97C5.46067 8.97 4.808 9.19733 4.28 9.652C3.752 10.1067 3.488 10.7667 3.488 11.632C3.488 12.4973 3.73 13.1793 4.214 13.678C4.71267 14.1767 5.40933 14.426 6.304 14.426C7.096 14.426 7.71933 14.184 8.174 13.7C8.64333 13.216 8.878 12.5633 8.878 11.742C8.878 10.8913 8.65067 10.2167 8.196 9.718C7.756 9.21933 7.10333 8.97 6.238 8.97Z" fill="#2A3246"/>
</svg>
