<svg width="41" height="18" viewBox="0 0 41 18" fill="none" xmlns="http://www.w3.org/2000/svg">
<path d="M2.85 8.508C1.38333 7.74533 0.65 6.56467 0.65 4.966C0.65 4.174 0.848 3.45533 1.244 2.81C1.65467 2.15 2.26333 1.62933 3.07 1.248C3.89133 0.851999 4.88867 0.653999 6.062 0.653999C7.23533 0.653999 8.22533 0.851999 9.032 1.248C9.85333 1.62933 10.462 2.15 10.858 2.81C11.2687 3.45533 11.474 4.174 11.474 4.966C11.474 5.77267 11.276 6.484 10.88 7.1C10.484 7.70133 9.956 8.17067 9.296 8.508C10.1027 8.86 10.7333 9.37333 11.188 10.048C11.6427 10.7227 11.87 11.522 11.87 12.446C11.87 13.4433 11.6133 14.316 11.1 15.064C10.6013 15.7973 9.912 16.362 9.032 16.758C8.152 17.154 7.162 17.352 6.062 17.352C4.962 17.352 3.972 17.154 3.092 16.758C2.22667 16.362 1.53733 15.7973 1.024 15.064C0.525333 14.316 0.276 13.4433 0.276 12.446C0.276 11.522 0.503333 10.7227 0.958 10.048C1.41267 9.35867 2.04333 8.84533 2.85 8.508ZM8.482 5.406C8.482 4.68733 8.262 4.13 7.822 3.734C7.39667 3.338 6.81 3.14 6.062 3.14C5.32867 3.14 4.742 3.338 4.302 3.734C3.87667 4.13 3.664 4.69467 3.664 5.428C3.664 6.088 3.884 6.616 4.324 7.012C4.77867 7.408 5.358 7.606 6.062 7.606C6.766 7.606 7.34533 7.408 7.8 7.012C8.25467 6.60133 8.482 6.066 8.482 5.406ZM6.062 9.85C5.226 9.85 4.544 10.0627 4.016 10.488C3.50267 10.9133 3.246 11.522 3.246 12.314C3.246 13.0473 3.49533 13.6487 3.994 14.118C4.50733 14.5727 5.19667 14.8 6.062 14.8C6.92733 14.8 7.60933 14.5653 8.108 14.096C8.60667 13.6267 8.856 13.0327 8.856 12.314C8.856 11.5367 8.59933 10.9353 8.086 10.51C7.57267 10.07 6.898 9.85 6.062 9.85ZM14.3027 8.772C14.3027 6.23467 14.7574 4.24733 15.6667 2.81C16.5907 1.37267 18.1161 0.653999 20.2427 0.653999C22.3694 0.653999 23.8874 1.37267 24.7967 2.81C25.7207 4.24733 26.1827 6.23467 26.1827 8.772C26.1827 11.324 25.7207 13.326 24.7967 14.778C23.8874 16.23 22.3694 16.956 20.2427 16.956C18.1161 16.956 16.5907 16.23 15.6667 14.778C14.7574 13.326 14.3027 11.324 14.3027 8.772ZM23.1467 8.772C23.1467 7.68667 23.0734 6.77733 22.9267 6.044C22.7947 5.296 22.5161 4.68733 22.0907 4.218C21.6801 3.74867 21.0641 3.514 20.2427 3.514C19.4214 3.514 18.7981 3.74867 18.3727 4.218C17.9621 4.68733 17.6834 5.296 17.5367 6.044C17.4047 6.77733 17.3387 7.68667 17.3387 8.772C17.3387 9.88667 17.4047 10.8253 17.5367 11.588C17.6687 12.336 17.9474 12.9447 18.3727 13.414C18.7981 13.8687 19.4214 14.096 20.2427 14.096C21.0641 14.096 21.6874 13.8687 22.1127 13.414C22.5381 12.9447 22.8167 12.336 22.9487 11.588C23.0807 10.8253 23.1467 9.88667 23.1467 8.772ZM28.5254 8.772C28.5254 6.23467 28.98 4.24733 29.8894 2.81C30.8134 1.37267 32.3387 0.653999 34.4654 0.653999C36.592 0.653999 38.11 1.37267 39.0194 2.81C39.9434 4.24733 40.4054 6.23467 40.4054 8.772C40.4054 11.324 39.9434 13.326 39.0194 14.778C38.11 16.23 36.592 16.956 34.4654 16.956C32.3387 16.956 30.8134 16.23 29.8894 14.778C28.98 13.326 28.5254 11.324 28.5254 8.772ZM37.3694 8.772C37.3694 7.68667 37.296 6.77733 37.1494 6.044C37.0174 5.296 36.7387 4.68733 36.3134 4.218C35.9027 3.74867 35.2867 3.514 34.4654 3.514C33.644 3.514 33.0207 3.74867 32.5954 4.218C32.1847 4.68733 31.906 5.296 31.7594 6.044C31.6274 6.77733 31.5614 7.68667 31.5614 8.772C31.5614 9.88667 31.6274 10.8253 31.7594 11.588C31.8914 12.336 32.17 12.9447 32.5954 13.414C33.0207 13.8687 33.644 14.096 34.4654 14.096C35.2867 14.096 35.91 13.8687 36.3354 13.414C36.7607 12.9447 37.0394 12.336 37.1714 11.588C37.3034 10.8253 37.3694 9.88667 37.3694 8.772Z" fill="#2A3246"/>
</svg>
